# WaveFront *.obj file (generated by Autodesk ATF)

mtllib body1_visual.mtl

g Body1

v 15.000000 1.250000 9.000000
v 11.224972 1.250000 9.000000
v 11.224972 -1.250000 9.000000
v 15.000000 -1.250000 9.000000
v 15.000000 -1.250000 0.000000
v 15.000000 1.250000 0.000000
v 10.544588 -1.250000 8.070192
v 9.787399 -1.250000 7.201784
v 8.958921 -1.250000 6.401103
v 8.065189 -1.250000 5.673979
v 7.112712 -1.250000 5.025710
v 6.108427 -1.250000 4.461017
v 5.059650 -1.250000 3.984013
v 3.974020 -1.250000 3.598172
v 2.859443 -1.250000 3.306305
v 1.724040 -1.250000 3.110538
v 0.576079 -1.250000 3.012297
v -0.576079 -1.250000 3.012297
v -1.724040 -1.250000 3.110538
v -2.859443 -1.250000 3.306305
v -3.974020 -1.250000 3.598172
v -5.059650 -1.250000 3.984013
v -6.108427 -1.250000 4.461017
v -7.112712 -1.250000 5.025710
v -8.065189 -1.250000 5.673979
v -8.958921 -1.250000 6.401103
v -9.787399 -1.250000 7.201784
v -10.544588 -1.250000 8.070192
v -11.224972 -1.250000 9.000000
v -15.000000 -1.250000 9.000000
v -15.000000 -1.250000 0.000000
v -11.224972 1.250000 9.000000
v -15.000000 1.250000 9.000000
v 10.544588 1.250000 8.070192
v 9.787399 1.250000 7.201784
v 8.958921 1.250000 6.401103
v 8.065189 1.250000 5.673979
v 7.112712 1.250000 5.025710
v 6.108427 1.250000 4.461017
v 5.059650 1.250000 3.984013
v 3.974020 1.250000 3.598172
v 2.859443 1.250000 3.306305
v 1.724040 1.250000 3.110538
v 0.576079 1.250000 3.012297
v -0.576079 1.250000 3.012297
v -1.724040 1.250000 3.110538
v -2.859443 1.250000 3.306305
v -3.974020 1.250000 3.598172
v -5.059650 1.250000 3.984013
v -6.108427 1.250000 4.461017
v -7.112712 1.250000 5.025710
v -8.065189 1.250000 5.673979
v -8.958921 1.250000 6.401103
v -9.787399 1.250000 7.201784
v -10.544588 1.250000 8.070192
v -15.000000 1.250000 0.000000
vt -0.000000 2.500000 0.000000
vt -3.775028 2.500000 0.000000
vt -0.000000 0.000000 0.000000
vt -3.775028 0.000000 0.000000
vt 7.500000 -1.250000 0.000000
vt 16.500000 -1.250000 0.000000
vt 7.500000 1.250000 0.000000
vt 16.500000 1.250000 0.000000
vt -11.224972 -0.750000 0.000000
vt -10.544588 0.179808 0.000000
vt -15.000000 -0.750000 0.000000
vt -9.787399 1.048216 0.000000
vt -8.958921 1.848897 0.000000
vt -15.000000 8.250000 0.000000
vt -8.065189 2.576021 0.000000
vt -7.112712 3.224290 0.000000
vt -6.108427 3.788983 0.000000
vt -5.059650 4.265987 0.000000
vt -3.974020 4.651828 0.000000
vt -2.859443 4.943695 0.000000
vt -1.724040 5.139462 0.000000
vt -0.576079 5.237703 0.000000
vt 0.576079 5.237703 0.000000
vt 15.000000 8.250000 0.000000
vt 1.724040 5.139462 0.000000
vt 2.859443 4.943695 0.000000
vt 3.974020 4.651828 0.000000
vt 5.059650 4.265987 0.000000
vt 6.108427 3.788983 0.000000
vt 7.112712 3.224290 0.000000
vt 8.065189 2.576021 0.000000
vt 8.958921 1.848897 0.000000
vt 15.000000 -0.750000 0.000000
vt 9.787399 1.048216 0.000000
vt 10.544588 0.179808 0.000000
vt 11.224972 -0.750000 0.000000
vt 0.000000 2.500000 0.000000
vt -3.775028 2.500000 0.000000
vt -0.000000 0.000000 0.000000
vt -3.775028 0.000000 0.000000
vt -1.250000 7.951918 0.000000
vt 1.250000 7.951918 0.000000
vt -1.250000 9.104425 0.000000
vt 1.250000 9.104425 0.000000
vt -1.250000 10.256932 0.000000
vt 1.250000 10.256932 0.000000
vt -1.250000 11.409440 0.000000
vt 1.250000 11.409440 0.000000
vt -1.250000 12.561947 0.000000
vt 1.250000 12.561947 0.000000
vt -1.250000 13.714454 0.000000
vt 1.250000 13.714454 0.000000
vt -1.250000 14.866961 0.000000
vt 1.250000 14.866961 0.000000
vt -1.250000 16.019468 0.000000
vt 1.250000 16.019468 0.000000
vt -1.250000 17.171975 0.000000
vt 1.250000 17.171975 0.000000
vt -1.250000 18.324483 0.000000
vt 1.250000 18.324483 0.000000
vt -1.250000 19.476990 0.000000
vt 1.250000 19.476990 0.000000
vt -1.250000 20.629497 0.000000
vt 1.250000 20.629497 0.000000
vt -1.250000 21.782004 0.000000
vt 1.250000 21.782004 0.000000
vt -1.250000 22.934511 0.000000
vt 1.250000 22.934511 0.000000
vt -1.250000 24.087018 0.000000
vt 1.250000 24.087018 0.000000
vt -1.250000 25.239525 0.000000
vt 1.250000 25.239525 0.000000
vt -1.250000 26.392033 0.000000
vt 1.250000 26.392033 0.000000
vt -1.250000 27.544540 0.000000
vt 1.250000 27.544540 0.000000
vt -1.250000 28.697047 0.000000
vt 1.250000 28.697047 0.000000
vt -1.250000 29.849554 0.000000
vt 1.250000 29.849554 0.000000
vt -1.250000 31.002061 0.000000
vt 1.250000 31.002061 0.000000
vt -1.250000 32.154568 0.000000
vt 1.250000 32.154568 0.000000
vt -1.250000 33.307076 0.000000
vt 1.250000 33.307076 0.000000
vt -1.250000 34.459583 0.000000
vt 1.250000 34.459583 0.000000
vt 9.000000 1.250000 0.000000
vt 0.000000 1.250000 0.000000
vt 9.000000 -1.250000 0.000000
vt 0.000000 -1.250000 0.000000
vt 30.000000 1.250000 0.000000
vt 0.000000 1.250000 0.000000
vt 30.000000 -1.250000 0.000000
vt 0.000000 -1.250000 0.000000
vt 11.224972 -0.750000 0.000000
vt 15.000000 -0.750000 0.000000
vt 10.544588 0.179808 0.000000
vt 9.787399 1.048216 0.000000
vt 8.958921 1.848897 0.000000
vt 15.000000 8.250000 0.000000
vt 8.065189 2.576021 0.000000
vt 7.112712 3.224290 0.000000
vt 6.108427 3.788983 0.000000
vt 5.059650 4.265987 0.000000
vt 3.974020 4.651828 0.000000
vt 2.859443 4.943695 0.000000
vt 1.724040 5.139462 0.000000
vt 0.576079 5.237703 0.000000
vt -15.000000 8.250000 0.000000
vt -0.576079 5.237703 0.000000
vt -1.724040 5.139462 0.000000
vt -2.859443 4.943695 0.000000
vt -3.974020 4.651828 0.000000
vt -5.059650 4.265987 0.000000
vt -6.108427 3.788983 0.000000
vt -7.112712 3.224290 0.000000
vt -8.065189 2.576021 0.000000
vt -8.958921 1.848897 0.000000
vt -15.000000 -0.750000 0.000000
vt -9.787399 1.048216 0.000000
vt -10.544588 0.179808 0.000000
vt -11.224972 -0.750000 0.000000
vn -0.000000 -0.000000 1.000000
vn -0.000000 -0.000000 1.000000
vn -0.000000 -0.000000 1.000000
vn -0.000000 -0.000000 1.000000
vn 1.000000 -0.000000 0.000000
vn 1.000000 -0.000000 0.000000
vn 1.000000 -0.000000 0.000000
vn 1.000000 -0.000000 0.000000
vn -0.000000 -1.000000 -0.000000
vn -0.000000 -1.000000 -0.000000
vn -0.000000 -1.000000 -0.000000
vn -0.000000 -1.000000 -0.000000
vn -0.000000 -1.000000 -0.000000
vn -0.000000 -1.000000 -0.000000
vn -0.000000 -1.000000 -0.000000
vn -0.000000 -1.000000 -0.000000
vn -0.000000 -1.000000 -0.000000
vn -0.000000 -1.000000 -0.000000
vn -0.000000 -1.000000 -0.000000
vn -0.000000 -1.000000 -0.000000
vn -0.000000 -1.000000 -0.000000
vn -0.000000 -1.000000 -0.000000
vn -0.000000 -1.000000 -0.000000
vn -0.000000 -1.000000 -0.000000
vn -0.000000 -1.000000 -0.000000
vn -0.000000 -1.000000 -0.000000
vn -0.000000 -1.000000 -0.000000
vn -0.000000 -1.000000 -0.000000
vn -0.000000 -1.000000 -0.000000
vn -0.000000 -1.000000 -0.000000
vn -0.000000 -1.000000 -0.000000
vn -0.000000 -1.000000 -0.000000
vn -0.000000 -1.000000 -0.000000
vn -0.000000 -1.000000 -0.000000
vn -0.000000 -1.000000 -0.000000
vn -0.000000 -1.000000 -0.000000
vn -0.000000 -0.000000 1.000000
vn -0.000000 -0.000000 1.000000
vn -0.000000 -0.000000 1.000000
vn -0.000000 -0.000000 1.000000
vn -0.831479 0.000000 0.555556
vn -0.831479 0.000000 0.555556
vn -0.781081 0.000000 0.624430
vn -0.781081 0.000000 0.624430
vn -0.724993 0.000000 0.688757
vn -0.724993 0.000000 0.688757
vn -0.663624 0.000000 0.748066
vn -0.663624 0.000000 0.748066
vn -0.597421 0.000000 0.801927
vn -0.597421 0.000000 0.801927
vn -0.526868 0.000000 0.849947
vn -0.526868 0.000000 0.849947
vn -0.452476 0.000000 0.891777
vn -0.452476 0.000000 0.891777
vn -0.374789 0.000000 0.927110
vn -0.374789 0.000000 0.927110
vn -0.294372 0.000000 0.955691
vn -0.294372 0.000000 0.955691
vn -0.211811 0.000000 0.977311
vn -0.211811 0.000000 0.977311
vn -0.127707 0.000000 0.991812
vn -0.127707 0.000000 0.991812
vn -0.042672 0.000000 0.999089
vn -0.042672 0.000000 0.999089
vn 0.042672 -0.000000 0.999089
vn 0.042672 -0.000000 0.999089
vn 0.127707 -0.000000 0.991812
vn 0.127707 -0.000000 0.991812
vn 0.211811 -0.000000 0.977311
vn 0.211811 -0.000000 0.977311
vn 0.294372 -0.000000 0.955691
vn 0.294372 -0.000000 0.955691
vn 0.374789 -0.000000 0.927110
vn 0.374789 -0.000000 0.927110
vn 0.452476 -0.000000 0.891777
vn 0.452476 -0.000000 0.891777
vn 0.526868 -0.000000 0.849947
vn 0.526868 -0.000000 0.849947
vn 0.597421 -0.000000 0.801927
vn 0.597421 -0.000000 0.801927
vn 0.663624 -0.000000 0.748066
vn 0.663624 -0.000000 0.748066
vn 0.724993 -0.000000 0.688757
vn 0.724993 -0.000000 0.688757
vn 0.781081 -0.000000 0.624430
vn 0.781081 -0.000000 0.624430
vn 0.831479 -0.000000 0.555556
vn 0.831479 -0.000000 0.555556
vn -1.000000 0.000000 0.000000
vn -1.000000 0.000000 0.000000
vn -1.000000 0.000000 0.000000
vn -1.000000 0.000000 0.000000
vn 0.000000 0.000000 -1.000000
vn 0.000000 0.000000 -1.000000
vn 0.000000 0.000000 -1.000000
vn 0.000000 0.000000 -1.000000
vn 0.000000 1.000000 0.000000
vn 0.000000 1.000000 0.000000
vn 0.000000 1.000000 0.000000
vn 0.000000 1.000000 0.000000
vn 0.000000 1.000000 0.000000
vn 0.000000 1.000000 0.000000
vn 0.000000 1.000000 0.000000
vn 0.000000 1.000000 0.000000
vn 0.000000 1.000000 0.000000
vn 0.000000 1.000000 0.000000
vn 0.000000 1.000000 0.000000
vn 0.000000 1.000000 0.000000
vn 0.000000 1.000000 0.000000
vn 0.000000 1.000000 0.000000
vn 0.000000 1.000000 0.000000
vn 0.000000 1.000000 0.000000
vn 0.000000 1.000000 0.000000
vn 0.000000 1.000000 0.000000
vn 0.000000 1.000000 0.000000
vn 0.000000 1.000000 0.000000
vn 0.000000 1.000000 0.000000
vn 0.000000 1.000000 0.000000
vn 0.000000 1.000000 0.000000
vn 0.000000 1.000000 0.000000
vn 0.000000 1.000000 0.000000
vn 0.000000 1.000000 0.000000
vn 0.000000 1.000000 0.000000
vn 0.000000 1.000000 0.000000
usemtl Plastic_-_Glossy_(Black)
f 1/1/1 2/2/2 4/3/3
f 4/3/3 2/2/2 3/4/4
f 4/5/5 5/6/6 1/7/7
f 1/7/7 5/6/6 6/8/8
f 3/9/9 7/10/10 4/11/11
f 4/11/11 7/10/10 8/12/12
f 4/11/11 8/12/12 9/13/13
f 4/11/11 9/13/13 5/14/14
f 5/14/14 9/13/13 10/15/15
f 5/14/14 10/15/15 11/16/16
f 11/16/16 12/17/17 5/14/14
f 5/14/14 12/17/17 13/18/18
f 5/14/14 13/18/18 14/19/19
f 14/19/19 15/20/20 5/14/14
f 5/14/14 15/20/20 16/21/21
f 5/14/14 16/21/21 17/22/22
f 17/22/22 18/23/23 5/14/14
f 5/14/14 18/23/23 31/24/24
f 31/24/24 18/23/23 19/25/25
f 31/24/24 19/25/25 20/26/26
f 20/26/26 21/27/27 31/24/24
f 31/24/24 21/27/27 22/28/28
f 31/24/24 22/28/28 23/29/29
f 23/29/29 24/30/30 31/24/24
f 31/24/24 24/30/30 25/31/31
f 31/24/24 25/31/31 26/32/32
f 31/24/24 26/32/32 30/33/33
f 30/33/33 26/32/32 27/34/34
f 30/33/33 27/34/34 28/35/35
f 28/35/35 29/36/36 30/33/33
f 32/37/37 33/38/38 29/39/39
f 29/39/39 33/38/38 30/40/40
f 3/41/41 2/42/42 7/43/43
f 7/43/43 2/42/42 34/44/44
f 7/43/43 34/44/44 8/45/45
f 8/45/45 34/44/44 35/46/46
f 8/45/45 35/46/46 9/47/47
f 9/47/47 35/46/46 36/48/48
f 9/47/47 36/48/48 10/49/49
f 10/49/49 36/48/48 37/50/50
f 10/49/49 37/50/50 11/51/51
f 11/51/51 37/50/50 38/52/52
f 11/51/51 38/52/52 12/53/53
f 12/53/53 38/52/52 39/54/54
f 12/53/53 39/54/54 13/55/55
f 13/55/55 39/54/54 40/56/56
f 13/55/55 40/56/56 14/57/57
f 14/57/57 40/56/56 41/58/58
f 14/57/57 41/58/58 15/59/59
f 15/59/59 41/58/58 42/60/60
f 15/59/59 42/60/60 16/61/61
f 16/61/61 42/60/60 43/62/62
f 16/61/61 43/62/62 17/63/63
f 17/63/63 43/62/62 44/64/64
f 17/63/63 44/64/64 18/65/65
f 18/65/65 44/64/64 45/66/66
f 18/65/65 45/66/66 19/67/67
f 19/67/67 45/66/66 46/68/68
f 19/67/67 46/68/68 20/69/69
f 20/69/69 46/68/68 47/70/70
f 20/69/69 47/70/70 21/71/71
f 21/71/71 47/70/70 48/72/72
f 21/71/71 48/72/72 22/73/73
f 22/73/73 48/72/72 49/74/74
f 22/73/73 49/74/74 23/75/75
f 23/75/75 49/74/74 50/76/76
f 23/75/75 50/76/76 24/77/77
f 24/77/77 50/76/76 51/78/78
f 24/77/77 51/78/78 25/79/79
f 25/79/79 51/78/78 52/80/80
f 25/79/79 52/80/80 26/81/81
f 26/81/81 52/80/80 53/82/82
f 26/81/81 53/82/82 27/83/83
f 27/83/83 53/82/82 54/84/84
f 27/83/83 54/84/84 28/85/85
f 28/85/85 54/84/84 55/86/86
f 28/85/85 55/86/86 29/87/87
f 29/87/87 55/86/86 32/88/88
f 33/89/89 56/90/90 30/91/91
f 30/91/91 56/90/90 31/92/92
f 56/93/93 6/94/94 31/95/95
f 31/95/95 6/94/94 5/96/96
f 2/97/97 1/98/98 34/99/99
f 34/99/99 1/98/98 35/100/100
f 35/100/100 1/98/98 36/101/101
f 36/101/101 1/98/98 6/102/102
f 36/101/101 6/102/102 37/103/103
f 37/103/103 6/102/102 38/104/104
f 38/104/104 6/102/102 39/105/105
f 39/105/105 6/102/102 40/106/106
f 40/106/106 6/102/102 41/107/107
f 41/107/107 6/102/102 42/108/108
f 42/108/108 6/102/102 43/109/109
f 43/109/109 6/102/102 44/110/110
f 44/110/110 6/102/102 56/111/111
f 44/110/110 56/111/111 45/112/112
f 45/112/112 56/111/111 46/113/113
f 46/113/113 56/111/111 47/114/114
f 47/114/114 56/111/111 48/115/115
f 48/115/115 56/111/111 49/116/116
f 49/116/116 56/111/111 50/117/117
f 50/117/117 56/111/111 51/118/118
f 51/118/118 56/111/111 52/119/119
f 52/119/119 56/111/111 53/120/120
f 53/120/120 56/111/111 33/121/121
f 53/120/120 33/121/121 54/122/122
f 54/122/122 33/121/121 55/123/123
f 55/123/123 33/121/121 32/124/124
# 56 vertices
# 124 texture params
# 124 normals
# 108 facets

# 1 groups
